<svg xmlns="http://www.w3.org/2000/svg" width="20" height="20" fill="none" viewBox="0 0 20 20">
  <path fill="#54408C" fill-rule="evenodd" d="M2.917 8.598c0-3.833 3.203-6.931 7.077-6.931 3.886 0 7.09 3.098 7.09 6.931 0 1.932-.703 3.725-1.86 5.245a18.388 18.388 0 0 1-4.617 4.284c-.405.265-.77.285-1.215 0a18.033 18.033 0 0 1-4.617-4.284c-1.157-1.52-1.859-3.313-1.859-5.245Zm4.745.217c0 1.284 1.047 2.294 2.332 2.294 1.286 0 2.344-1.01 2.344-2.294 0-1.274-1.058-2.334-2.344-2.334a2.345 2.345 0 0 0-2.332 2.334Z" clip-rule="evenodd"/>
</svg>
