<svg xmlns="http://www.w3.org/2000/svg" width="24" height="24" fill="none" viewBox="0 0 24 24">
  <path fill="#000" d="m18.27 16.612.795.605-.796-.605Zm-5.541 5.14-.544-.839-.004.003.548.836Zm-1.459 0-.541.841.002.001.54-.842Zm-5.54-5.14.799-.603-.003-.003-.795.606ZM11.994 1C6.815 1 2.5 5.142 2.5 10.318h2C4.5 6.293 7.873 3 11.993 3V1Zm9.507 9.318C21.5 5.14 17.184 1 11.993 1v2c4.135 0 7.507 3.294 7.507 7.318h2Zm-2.435 6.899c1.5-1.97 2.435-4.33 2.435-6.9h-2c0 2.068-.75 4.012-2.026 5.69l1.591 1.21Zm-5.793 5.375a23.066 23.066 0 0 0 5.793-5.375l-1.591-1.21a21.062 21.062 0 0 1-5.29 4.906l1.088 1.679Zm-2.541.002c.38.244.814.412 1.299.406.483-.006.898-.183 1.246-.41l-1.095-1.674a.7.7 0 0 1-.17.083l-.006.001h-.008a.73.73 0 0 1-.187-.089l-1.08 1.683Zm-5.799-5.38a22.642 22.642 0 0 0 5.797 5.38l1.083-1.682a20.641 20.641 0 0 1-5.283-4.903l-1.597 1.205ZM2.5 10.318c0 2.569.935 4.928 2.435 6.9l1.591-1.212C5.25 14.329 4.5 12.385 4.5 10.318h-2Zm9.493 2.012c-1.01 0-1.799-.786-1.799-1.753h-2c0 2.114 1.727 3.753 3.8 3.753v-2Zm1.813-1.753c0 .961-.794 1.753-1.813 1.753v2c2.068 0 3.813-1.633 3.813-3.753h-2Zm-1.813-1.8c.993 0 1.813.826 1.813 1.8h2c0-2.084-1.72-3.8-3.813-3.8v2Zm-1.799 1.8c0-.98.813-1.8 1.8-1.8v-2a3.814 3.814 0 0 0-3.8 3.8h2Z"/>
</svg>
