<svg xmlns="http://www.w3.org/2000/svg" width="20" height="20" fill="none" viewBox="0 0 20 20">
  <path fill="#54408C" fill-rule="evenodd" d="M1.667 10.013c0-4.39 3.508-8.346 8.35-8.346 4.733 0 8.316 3.88 8.316 8.32 0 5.15-4.2 8.347-8.333 8.347-1.367 0-2.883-.368-4.1-1.085-.425-.259-.784-.451-1.242-.3l-1.683.5c-.425.133-.808-.2-.683-.651l.558-1.87a.874.874 0 0 0-.058-.75c-.717-1.32-1.125-2.763-1.125-4.165Zm4.475 1.076a1.075 1.075 0 0 1-1.067-1.068c0-.592.475-1.068 1.067-1.068.591 0 1.066.476 1.066 1.068 0 .584-.475 1.06-1.066 1.068Zm2.774-1.076c0 .593.476 1.068 1.067 1.077a1.07 1.07 0 0 0 1.067-1.069c0-.592-.475-1.068-1.067-1.068a1.062 1.062 0 0 0-1.067 1.06Zm3.842.008a1.07 1.07 0 0 0 1.067 1.069 1.07 1.07 0 0 0 1.067-1.069c0-.592-.476-1.068-1.067-1.068-.592 0-1.067.476-1.067 1.069Z" clip-rule="evenodd"/>
</svg>
