<svg xmlns="http://www.w3.org/2000/svg" width="24" height="24" fill="currentColor" viewBox="0 0 24 24">
  <path d="M9 .417a1.152 1.152 0 0 1 .12 1.287 10.812 10.812 0 0 0-1.317 5.19c0 6.031 4.917 10.915 10.977 10.915.79 0 1.56-.082 2.3-.24a1.18 1.18 0 0 1 1.215.474 1.1 1.1 0 0 1-.047 1.34A12.523 12.523 0 0 1 12.516 24C5.601 24 0 18.429 0 11.565 0 6.399 3.171 1.968 7.686.09A1.128 1.128 0 0 1 9 .417Zm-1.713 1.55a10.903 10.903 0 0 0-5.75 9.598c0 6.03 4.919 10.914 10.979 10.914a10.974 10.974 0 0 0 7.807-3.243 12.47 12.47 0 0 1-1.543.094c-6.915 0-12.515-5.57-12.515-12.435 0-1.75.364-3.417 1.022-4.929Z"/>
</svg>
