<svg xmlns="http://www.w3.org/2000/svg" width="24" height="24" fill="none" viewBox="0 0 24 24">
  <path fill="#000" d="M18.05 3.03h-.16v-.28c0-.41-.34-.75-.75-.75s-.75.34-.75.75v.28H7.61v-.28a.749.749 0 1 0-1.5 0v.28h-.16C3.77 3.03 2 4.8 2 6.98v11.07C2 20.23 3.77 22 5.95 22h12.1c2.18 0 3.95-1.77 3.95-3.95V6.98c0-2.18-1.77-3.95-3.95-3.95ZM6 18.97c-.55 0-1-.44-1-1 0-.55.45-1 1-1s1 .45 1 1c0 .56-.45 1-1 1Zm0-3.48c-.55 0-1-.45-1-1 0-.56.45-1 1-1s1 .44 1 1c0 .55-.45 1-1 1ZM6 12c-.55 0-1-.45-1-1s.45-1 1-1 1 .45 1 1-.45 1-1 1Zm4 6.97c-.55 0-1-.44-1-1 0-.55.45-1 1-1s1 .45 1 1c0 .56-.45 1-1 1Zm0-3.48c-.55 0-1-.45-1-1 0-.56.45-1 1-1s1 .44 1 1c0 .55-.45 1-1 1ZM10 12c-.55 0-1-.45-1-1s.45-1 1-1 1 .45 1 1-.45 1-1 1Zm4 6.97c-.55 0-1-.44-1-1 0-.55.45-1 1-1s1 .45 1 1c0 .56-.45 1-1 1Zm0-3.48c-.55 0-1-.45-1-1 0-.56.45-1 1-1s1 .44 1 1c0 .55-.45 1-1 1ZM14 12c-.55 0-1-.45-1-1s.45-1 1-1 1 .45 1 1-.45 1-1 1Zm4 3.49c-.55 0-1-.45-1-1 0-.56.45-1 1-1s1 .44 1 1c0 .55-.45 1-1 1ZM18 12c-.55 0-1-.45-1-1s.45-1 1-1 1 .45 1 1-.45 1-1 1Zm2.5-4.85h-17v-.17c0-1.35 1.1-2.45 2.45-2.45h.16v.28c0 .42.34.75.75.75.42 0 .75-.33.75-.75v-.28h8.78v.28a.749.749 0 1 0 1.5 0v-.28h.16c1.35 0 2.45 1.1 2.45 2.45v.17Z"/>
</svg>
