<svg xmlns="http://www.w3.org/2000/svg" width="20" height="20" fill="none" viewBox="0 0 20 20">
  <path fill="#54408C" fill-rule="evenodd" d="M6.508 1.667h6.984c2.575 0 4.008 1.483 4.008 4.025V14.3c0 2.584-1.433 4.034-4.008 4.034H6.508c-2.533 0-4.008-1.45-4.008-4.034V5.692c0-2.542 1.475-4.025 4.008-4.025Zm.225 3.883v-.008h2.491a.65.65 0 0 1 .651.65.652.652 0 0 1-.65.658H6.732a.65.65 0 0 1 0-1.3Zm0 5.067h6.534a.65.65 0 0 0 0-1.3H6.734a.651.651 0 0 0 0 1.3Zm0 3.808h6.534a.652.652 0 0 0 .583-.65.654.654 0 0 0-.583-.658H6.733a.662.662 0 0 0-.625 1.008.647.647 0 0 0 .625.3Z" clip-rule="evenodd"/>
</svg>
