<svg xmlns="http://www.w3.org/2000/svg" width="17" height="19" fill="none" viewBox="0 0 17 19">
  <path fill="#54408C" d="M6.84 0a.624.624 0 0 0-.623.627c0 1.05-.364 1.664-.835 2.45-.257.43-.67 1.142-.846 1.689-.185-.373-.291-.649-.455-1.245a.625.625 0 0 0-1.094-.226C.642 6.215-.047 8.405.002 10.621c.1 4.461 3.645 8.112 8.125 8.112s8.124-3.646 8.124-8.126c0-1.15-.266-2.644-.817-4.05-.55-1.405-1.38-2.739-2.652-3.419a.625.625 0 0 0-.9.402 9.552 9.552 0 0 1-.313 1.081 7.337 7.337 0 0 0-.937-2.346C9.846 1.011 8.548 0 6.84 0Zm-.802 8.263a.938.938 0 1 1 0 1.876.938.938 0 0 1 0-1.876Zm4.435.006a.558.558 0 0 1 .464.152c.259.227.285.62.06.88l-4.803 5.467a.625.625 0 1 1-.936-.825l4.798-5.467a.663.663 0 0 1 .417-.207Zm-.26 4.838a.938.938 0 1 1 0 1.876.938.938 0 0 1 0-1.876Z"/>
</svg>
